HIERARCHY
ROOT Root
{
  OFFSET 0.0 0.0 0.0
  CHANNELS 6 Xposition Yposition Zposition Zrotation Yrotation Xrotation
  JOINT Hips
  {
    OFFSET 0.0 100.0 0.0
    CHANNELS 6 Xposition Yposition Zposition Zrotation Yrotation Xrotation
    JOINT Spine1
    {
      OFFSET 5.003913 -0.037094 -0.013727
      CHANNELS 3 Zrotation Yrotation Xrotation
      JOINT Spine2
      {
        OFFSET 7.125363 -1e-06 0.0
        CHANNELS 3 Zrotation Yrotation Xrotation
        JOINT Chest
        {
          OFFSET 7.594027 1e-06 0.0
          CHANNELS 3 Zrotation Yrotation Xrotation
          JOINT Neck1
          {
            OFFSET 26.313086 -0.460272 -0.181672
            CHANNELS 3 Zrotation Yrotation Xrotation
            JOINT Neck2
            {
              OFFSET 8.045911 0.0 0.0
              CHANNELS 3 Zrotation Yrotation Xrotation
              JOINT Head
              {
                OFFSET 6.432774 0.0 0.0
                CHANNELS 3 Zrotation Yrotation Xrotation
                JOINT HeadEnd
                {
                  OFFSET 16.169773 0.06451 0.00362
                  CHANNELS 3 Zrotation Yrotation Xrotation
                }
                JOINT Jaw
                {
                  OFFSET 0.108741 3.12938 0.002639
                  CHANNELS 3 Zrotation Yrotation Xrotation
                }
                JOINT LeftEye
                {
                  OFFSET 4.45173 8.166359 3.206392
                  CHANNELS 3 Zrotation Yrotation Xrotation
                }
                JOINT RightEye
                {
                  OFFSET 4.436895 8.135758 -3.222429
                  CHANNELS 3 Zrotation Yrotation Xrotation
                }
              }
            }
          }
          JOINT LeftShoulder
          {
            OFFSET 23.218927 5.195579 1.621656
            CHANNELS 3 Zrotation Yrotation Xrotation
            JOINT LeftArm
            {
              OFFSET 15.902118 2e-06 -2e-06
              CHANNELS 3 Zrotation Yrotation Xrotation
              JOINT LeftForeArm
              {
                OFFSET 28.739307 0.0 -1e-06
                CHANNELS 3 Zrotation Yrotation Xrotation
                JOINT LeftHand
                {
                  OFFSET 27.093981 -4e-06 0.0
                  CHANNELS 3 Zrotation Yrotation Xrotation
                  JOINT LeftHandThumb1
                  {
                    OFFSET 2.276781 3.380274 0.83384
                    CHANNELS 3 Zrotation Yrotation Xrotation
                    JOINT LeftHandThumb2
                    {
                      OFFSET 4.705309 -1e-06 -1e-06
                      CHANNELS 3 Zrotation Yrotation Xrotation
                      JOINT LeftHandThumb3
                      {
                        OFFSET 2.798515 0.0 3e-06
                        CHANNELS 3 Zrotation Yrotation Xrotation
                        JOINT LeftHandThumbEnd
                        {
                          OFFSET 3.180793 4e-06 -4e-06
                          CHANNELS 3 Zrotation Yrotation Xrotation
                        }
                      }
                    }
                  }
                  JOINT LeftHandIndex1
                  {
                    OFFSET 3.247786 2.352677 0.137192
                    CHANNELS 3 Zrotation Yrotation Xrotation
                    JOINT LeftHandIndex2
                    {
                      OFFSET 6.367095 1e-06 0.0
                      CHANNELS 3 Zrotation Yrotation Xrotation
                      JOINT LeftHandIndex3
                      {
                        OFFSET 3.662364 0.0 0.0
                        CHANNELS 3 Zrotation Yrotation Xrotation
                        JOINT LeftHandIndex4
                        {
                          OFFSET 2.329242 4e-06 -4e-06
                          CHANNELS 3 Zrotation Yrotation Xrotation
                          JOINT LeftHandIndexEnd
                          {
                            OFFSET 2.767823 1e-06 0.0
                            CHANNELS 3 Zrotation Yrotation Xrotation
                          }
                        }
                      }
                    }
                  }
                  JOINT LeftHandMiddle1
                  {
                    OFFSET 3.163612 0.945023 -0.406112
                    CHANNELS 3 Zrotation Yrotation Xrotation
                    JOINT LeftHandMiddle2
                    {
                      OFFSET 6.276789 3e-06 0.0
                      CHANNELS 3 Zrotation Yrotation Xrotation
                      JOINT LeftHandMiddle3
                      {
                        OFFSET 4.35652 -1e-06 4e-06
                        CHANNELS 3 Zrotation Yrotation Xrotation
                        JOINT LeftHandMiddle4
                        {
                          OFFSET 2.996877 0.0 8e-06
                          CHANNELS 3 Zrotation Yrotation Xrotation
                          JOINT LeftHandMiddleEnd
                          {
                            OFFSET 2.323256 3e-06 -4e-06
                            CHANNELS 3 Zrotation Yrotation Xrotation
                          }
                        }
                      }
                    }
                  }
                  JOINT LeftHandRing1
                  {
                    OFFSET 2.882606 -0.309162 0.107445
                    CHANNELS 3 Zrotation Yrotation Xrotation
                    JOINT LeftHandRing2
                    {
                      OFFSET 6.033198 0.0 4e-06
                      CHANNELS 3 Zrotation Yrotation Xrotation
                      JOINT LeftHandRing3
                      {
                        OFFSET 4.350578 3e-06 0.0
                        CHANNELS 3 Zrotation Yrotation Xrotation
                        JOINT LeftHandRing4
                        {
                          OFFSET 2.651321 2e-06 -7e-06
                          CHANNELS 3 Zrotation Yrotation Xrotation
                          JOINT LeftHandRingEnd
                          {
                            OFFSET 1.937663 1e-06 -4e-06
                            CHANNELS 3 Zrotation Yrotation Xrotation
                          }
                        }
                      }
                    }
                  }
                  JOINT LeftHandPinky1
                  {
                    OFFSET 2.865315 -1.525436 0.575687
                    CHANNELS 3 Zrotation Yrotation Xrotation
                    JOINT LeftHandPinky2
                    {
                      OFFSET 5.54936 1e-06 -8e-06
                      CHANNELS 3 Zrotation Yrotation Xrotation
                      JOINT LeftHandPinky3
                      {
                        OFFSET 3.070974 0.0 -4e-06
                        CHANNELS 3 Zrotation Yrotation Xrotation
                        JOINT LeftHandPinky4
                        {
                          OFFSET 1.549672 1e-06 0.0
                          CHANNELS 3 Zrotation Yrotation Xrotation
                          JOINT LeftHandPinkyEnd
                          {
                            OFFSET 1.952123 0.0 0.0
                            CHANNELS 3 Zrotation Yrotation Xrotation
                          }
                        }
                      }
                    }
                  }
                }
              }
            }
          }
          JOINT RightShoulder
          {
            OFFSET 23.161716 5.296122 -1.380114
            CHANNELS 3 Zrotation Yrotation Xrotation
            JOINT RightArm
            {
              OFFSET -16.027195 -2e-06 1.1e-05
              CHANNELS 3 Zrotation Yrotation Xrotation
              JOINT RightForeArm
              {
                OFFSET -28.736639 4e-06 2e-06
                CHANNELS 3 Zrotation Yrotation Xrotation
                JOINT RightHand
                {
                  OFFSET -27.133619 6e-06 0.0
                  CHANNELS 3 Zrotation Yrotation Xrotation
                  JOINT RightHandThumb1
                  {
                    OFFSET -2.274328 -3.351035 -0.83067
                    CHANNELS 3 Zrotation Yrotation Xrotation
                    JOINT RightHandThumb2
                    {
                      OFFSET -4.703594 -3e-06 2e-06
                      CHANNELS 3 Zrotation Yrotation Xrotation
                      JOINT RightHandThumb3
                      {
                        OFFSET -2.794935 -4e-06 -3e-06
                        CHANNELS 3 Zrotation Yrotation Xrotation
                        JOINT RightHandThumbEnd
                        {
                          OFFSET -3.183852 4e-06 1e-06
                          CHANNELS 3 Zrotation Yrotation Xrotation
                        }
                      }
                    }
                  }
                  JOINT RightHandIndex1
                  {
                    OFFSET -3.253496 -2.33755 -0.127667
                    CHANNELS 3 Zrotation Yrotation Xrotation
                    JOINT RightHandIndex2
                    {
                      OFFSET -6.344434 0.0 0.0
                      CHANNELS 3 Zrotation Yrotation Xrotation
                      JOINT RightHandIndex3
                      {
                        OFFSET -3.654871 0.0 -8e-06
                        CHANNELS 3 Zrotation Yrotation Xrotation
                        JOINT RightHandIndex4
                        {
                          OFFSET -2.327586 -1e-06 0.0
                          CHANNELS 3 Zrotation Yrotation Xrotation
                          JOINT RightHandIndexEnd
                          {
                            OFFSET -2.770001 3e-06 8e-06
                            CHANNELS 3 Zrotation Yrotation Xrotation
                          }
                        }
                      }
                    }
                  }
                  JOINT RightHandMiddle1
                  {
                    OFFSET -3.168223 -0.944764 0.411762
                    CHANNELS 3 Zrotation Yrotation Xrotation
                    JOINT RightHandMiddle2
                    {
                      OFFSET -6.266691 -1e-06 -4e-06
                      CHANNELS 3 Zrotation Yrotation Xrotation
                      JOINT RightHandMiddle3
                      {
                        OFFSET -4.348901 0.0 0.0
                        CHANNELS 3 Zrotation Yrotation Xrotation
                        JOINT RightHandMiddle4
                        {
                          OFFSET -3.00024 2e-06 -4e-06
                          CHANNELS 3 Zrotation Yrotation Xrotation
                          JOINT RightHandMiddleEnd
                          {
                            OFFSET -2.321477 -4e-06 -4e-06
                            CHANNELS 3 Zrotation Yrotation Xrotation
                          }
                        }
                      }
                    }
                  }
                  JOINT RightHandRing1
                  {
                    OFFSET -2.885654 0.293261 -0.119232
                    CHANNELS 3 Zrotation Yrotation Xrotation
                    JOINT RightHandRing2
                    {
                      OFFSET -6.032835 -1e-06 -4e-06
                      CHANNELS 3 Zrotation Yrotation Xrotation
                      JOINT RightHandRing3
                      {
                        OFFSET -4.33881 0.0 -4e-06
                        CHANNELS 3 Zrotation Yrotation Xrotation
                        JOINT RightHandRing4
                        {
                          OFFSET -2.654903 -4e-06 -4e-06
                          CHANNELS 3 Zrotation Yrotation Xrotation
                          JOINT RightHandRingEnd
                          {
                            OFFSET -1.935122 0.0 4e-06
                            CHANNELS 3 Zrotation Yrotation Xrotation
                          }
                        }
                      }
                    }
                  }
                  JOINT RightHandPinky1
                  {
                    OFFSET -2.866241 1.503904 -0.60527
                    CHANNELS 3 Zrotation Yrotation Xrotation
                    JOINT RightHandPinky2
                    {
                      OFFSET -5.553177 -2e-06 0.0
                      CHANNELS 3 Zrotation Yrotation Xrotation
                      JOINT RightHandPinky3
                      {
                        OFFSET -3.062664 -1e-06 -4e-06
                        CHANNELS 3 Zrotation Yrotation Xrotation
                        JOINT RightHandPinky4
                        {
                          OFFSET -1.546529 2e-06 4e-06
                          CHANNELS 3 Zrotation Yrotation Xrotation
                          JOINT RightHandPinkyEnd
                          {
                            OFFSET -1.952341 0.0 -4e-06
                            CHANNELS 3 Zrotation Yrotation Xrotation
                          }
                        }
                      }
                    }
                  }
                }
              }
            }
          }
        }
      }
    }
    JOINT LeftLeg
    {
      OFFSET -8.443107 2.567604 10.043214
      CHANNELS 3 Zrotation Yrotation Xrotation
      JOINT LeftShin
      {
        OFFSET 43.229198 1e-06 -1e-06
        CHANNELS 3 Zrotation Yrotation Xrotation
        JOINT LeftFoot
        {
          OFFSET 42.298611 1e-06 1e-06
          CHANNELS 3 Zrotation Yrotation Xrotation
          JOINT LeftToeBase
          {
            OFFSET 14.165858 1e-06 0.0
            CHANNELS 3 Zrotation Yrotation Xrotation
            JOINT LeftToeEnd
            {
              OFFSET 6.7141 -0.234461 0.0
              CHANNELS 3 Zrotation Yrotation Xrotation
            }
          }
        }
      }
    }
    JOINT RightLeg
    {
      OFFSET -8.303923 2.592729 -10.047278
      CHANNELS 3 Zrotation Yrotation Xrotation
      JOINT RightShin
      {
        OFFSET -43.369682 0.0 1e-06
        CHANNELS 3 Zrotation Yrotation Xrotation
        JOINT RightFoot
        {
          OFFSET -42.260784 4e-06 2e-06
          CHANNELS 3 Zrotation Yrotation Xrotation
          JOINT RightToeBase
          {
            OFFSET -14.222245 -2e-06 -1e-06
            CHANNELS 3 Zrotation Yrotation Xrotation
            JOINT RightToeEnd
            {
              OFFSET -6.660062 0.232574 -2e-06
              CHANNELS 3 Zrotation Yrotation Xrotation
            }
          }
        }
      }
    }
  }
}
MOTION
Frames: 4
Frame Time: 0.03333333333333333
0.0 0.0 0.0 0.0 -0.0 0.0 -7.379893 50.694019 112.825905 87.2677 -46.707741 88.286446 20.044344 1.846967 0.09527 -3.870772 0.074035 -1.495587 21.636353 3.594292 -2.272368 35.348637 -1.749374 2.900405 -2.740448 -1.355959 2.820549 -24.426952 1.328773 2.852731 6e-06 0.0 -0.0 -0.216284 -0.113094 0.017109 -0.396649 -0.152572 -0.023695 -0.403892 -0.086397 0.063817 23.849169 -76.491386 -19.273796 53.284039 12.5811 -44.859962 26.781883 -0.961446 0.080068 3.604686 46.380852 5.50146 17.636621 -26.322725 52.411194 -19.46666 -14.395598 29.410395 -2e-06 -8.774819 -0.0 16.108452 -18.687805 6.162879 -0.609776 -1.795654 -3.889327 -4.807087 -11.046808 -2.93785 4e-06 -20.976019 -1e-06 -5.019969 -25.033556 -4.031881 6e-06 -2e-06 -1e-06 -10.634532 -5.68697 -3.565588 10.573271 -17.922951 -3.113902 3e-06 -13.821206 0.0 -0.501776 -31.181498 -4.027018 -11.600718 -59.393044 7.340759 -13.982712 -7.150197 -2.875043 13.772729 -8.401491 -3.218243 0.347735 -34.211544 0.771654 -0.963029 -17.733366 2.621018 -1e-06 -0.0 0.0 -17.346413 -20.095213 -4.201785 21.757555 -1.638378 3.866428 2e-06 -6.338821 2e-06 -1.697586 -22.591742 -6.194009 -2e-06 -6e-06 -2e-06 -144.569656 -80.317612 -31.438421 82.536934 -11.824693 -20.709301 18.875896 0.212785 -0.19017 30.163069 75.301521 35.566559 22.182117 -20.375895 49.933319 -16.701813 -16.74353 28.47653 0.0 -12.690601 0.0 16.269505 -17.920732 2.973278 -0.105919 -1.513856 -4.275881 -5.039039 -5.612872 -2.953556 3e-06 -11.020523 -2e-06 -6.111298 -15.895332 -3.840472 0.0 1e-06 -0.0 -10.283371 -5.680288 -4.341838 11.028295 -11.302405 -2.372633 -1.384268 -14.238579 -6.32012 -0.625439 -26.924191 -3.827599 -4.874094 -50.028481 -3.418646 -13.708524 -7.363475 -3.720941 18.14115 -14.05274 -3.242673 6e-06 -18.787271 -1e-06 -0.429712 -8.456044 2.555504 1e-06 -1e-06 0.0 -15.923536 -20.094484 -5.473584 30.419218 -7.190823 1.735928 3e-06 -8.162927 -1e-06 -1.861903 -22.861469 -6.167942 -0.0 -3e-06 -0.0 145.303787 -7.484208 -0.274198 100.975891 -1.250384 0.264609 -100.395943 9.10006 7.793669 -41.264412 1.621092 1.386397 -0.999999 1e-06 -0.0 -62.84026 -9.572528 5.887828 136.138824 -0.026308 0.593205 -101.922035 6.97017 9.373129 -22.758287 0.900605 1.686774 -1.000001 -0.0 0.0 
0.0 0.0 0.0 0.0 -0.0 0.0 -7.478915 50.645889 114.259956 86.089134 -45.433563 89.487923 20.521622 2.493339 0.051227 -3.71432 0.201477 -1.888084 22.557983 4.157369 -2.539663 35.519329 -2.131723 2.591058 -2.753808 -1.321283 2.974168 -24.357864 0.820467 3.344783 6e-06 1e-06 0.0 -0.219413 -0.119872 0.019341 -0.440377 -0.141071 -0.027771 -0.440868 -0.113322 0.072254 26.147604 -75.447212 -21.454414 52.79557 11.911502 -43.502728 23.325386 -1.330438 -0.007822 0.645254 46.846893 1.774272 17.636635 -26.322729 52.411201 -19.466663 -14.395598 29.410395 -1e-06 -8.774821 -2e-06 16.130106 -18.646694 6.055887 -0.609776 -1.795653 -3.889326 -4.807089 -11.046807 -2.937852 8e-06 -20.976015 -1e-06 -5.019966 -25.033548 -4.031882 6e-06 -1e-06 1e-06 -10.634535 -5.686969 -3.565587 10.573275 -17.922953 -3.1139 3e-06 -13.821206 2e-06 -0.501774 -31.181498 -4.027016 -11.378071 -59.296078 7.177024 -13.982714 -7.150197 -2.875043 13.772731 -8.401489 -3.218241 0.347736 -34.211544 0.771655 -0.963028 -17.733364 2.621021 -0.0 -0.0 0.0 -17.346416 -20.095213 -4.201786 21.757557 -1.638377 3.866431 1e-06 -6.338823 1e-06 -1.697586 -22.591742 -6.194007 -1e-06 -5e-06 -1e-06 -142.464951 -80.405685 -32.888424 82.942268 -11.415422 -19.128672 18.813643 0.164156 -0.205798 28.802498 76.052727 34.612507 22.182108 -20.375889 49.933308 -16.701807 -16.74353 28.476524 -2e-06 -12.690599 0.0 16.314518 -17.97522 2.860077 -0.105919 -1.513856 -4.275881 -5.039038 -5.612869 -2.953556 5e-06 -11.020518 -2e-06 -6.111294 -15.895326 -3.840472 0.0 1e-06 1e-06 -10.283367 -5.680284 -4.341839 11.028294 -11.302402 -2.372633 -1.384267 -14.238572 -6.32012 -0.625438 -26.924183 -3.827599 -4.783428 -49.935211 -3.532314 -13.708521 -7.363473 -3.720939 18.141148 -14.052736 -3.242675 6e-06 -18.787266 -0.0 -0.429711 -8.45604 2.555504 0.0 -1e-06 -0.0 -15.92353 -20.094479 -5.473584 30.419205 -7.190823 1.735924 3e-06 -8.162925 -2e-06 -1.861901 -22.861464 -6.167938 0.0 -4e-06 -2e-06 148.512787 -8.294777 -0.043809 98.975525 -1.414743 0.282383 -101.143867 8.627075 8.475536 -41.911163 1.64139 1.423597 -1.000003 0.0 0.0 -66.926941 -8.691216 6.213439 138.726624 0.354336 0.604427 -105.472008 9.724829 9.714228 -23.245592 0.946998 1.599835 -1.000001 0.0 -0.0 
0.0 0.0 0.0 0.0 -0.0 0.0 -7.64293 50.497963 115.760445 85.350868 -44.105873 90.670494 20.881968 3.104155 -0.032133 -3.592328 0.319086 -2.28801 23.423193 4.594193 -2.845911 35.946659 -2.291031 2.314925 -2.767599 -1.326679 3.026179 -24.256741 0.251622 3.638631 6e-06 0.0 -0.0 -0.215288 -0.133591 0.017968 -0.481757 -0.142837 -0.035194 -0.478209 -0.138938 0.077234 27.746609 -74.870132 -22.910635 52.978031 10.607273 -42.429653 21.255177 -1.468058 -0.055515 -1.25661 48.235195 -0.533924 17.636639 -26.322731 52.411182 -19.46666 -14.395598 29.410385 -2e-06 -8.774822 -1e-06 16.261438 -18.638348 5.941562 -0.609775 -1.795651 -3.889327 -4.807087 -11.046811 -2.93785 5e-06 -20.976019 2e-06 -5.019969 -25.033554 -4.03188 6e-06 -1e-06 3e-06 -10.634534 -5.686968 -3.565588 10.573275 -17.922953 -3.113898 3e-06 -13.821211 3e-06 -0.501779 -31.181505 -4.027011 -11.332025 -59.305965 7.129059 -13.982714 -7.150196 -2.87504 13.77273 -8.401491 -3.218243 0.347736 -34.211552 0.771657 -0.963028 -17.733368 2.621022 -0.0 -0.0 -0.0 -17.346416 -20.095213 -4.20178 21.757561 -1.63838 3.866429 2e-06 -6.338824 1e-06 -1.697587 -22.591745 -6.194005 -2e-06 -7e-06 -3e-06 -140.676712 -80.677422 -33.989441 83.198967 -11.368937 -17.834309 18.825403 0.185308 -0.189755 27.988703 76.610397 34.073174 22.182116 -20.375891 49.933315 -16.701811 -16.74353 28.476528 -2e-06 -12.690603 -0.0 16.330458 -17.989325 2.758004 -0.10592 -1.513856 -4.275881 -5.039041 -5.612872 -2.953556 3e-06 -11.020523 -1e-06 -6.111298 -15.895332 -3.840472 0.0 1e-06 -0.0 -10.283371 -5.680288 -4.341838 11.028294 -11.302403 -2.372633 -1.384269 -14.238577 -6.32012 -0.625439 -26.924191 -3.827601 -4.695495 -49.716187 -3.68054 -13.708525 -7.363475 -3.720939 18.14115 -14.052737 -3.242674 6e-06 -18.787271 -1e-06 -0.429711 -8.456042 2.555503 -0.0 1e-06 -0.0 -15.923536 -20.094482 -5.473584 30.419214 -7.190828 1.735926 3e-06 -8.162925 -2e-06 -1.861905 -22.861467 -6.167937 1e-06 -2e-06 -1e-06 151.784729 -8.860512 0.166128 96.762444 -1.594963 0.290326 -101.306496 8.56437 9.008577 -42.492352 1.668084 1.457511 -1.000001 -0.0 0.0 -69.760857 -8.280967 6.428388 139.695267 0.516909 0.539395 -107.551308 12.513422 9.930777 -24.195312 0.980241 1.539611 -1.000001 -0.0 -0.0 
0.0 0.0 0.0 0.0 -0.0 0.0 -7.831445 50.208748 117.302116 85.175728 -42.880821 91.762703 21.066669 3.585252 -0.1918 -3.503974 0.416578 -2.64897 24.134747 4.964021 -3.144445 36.589813 -2.255658 2.135468 -2.764987 -1.390166 2.988765 -24.133455 -0.371895 3.666672 6e-06 -0.0 0.0 -0.203698 -0.139926 0.014333 -0.489962 -0.146248 -0.039486 -0.488546 -0.145831 0.075212 28.220835 -74.676704 -23.267483 53.943081 8.895781 -41.448036 20.279007 -1.381762 -0.084147 -2.600724 50.387451 -2.136192 17.636631 -26.322729 52.411182 -19.466656 -14.395598 29.410389 -2e-06 -8.774821 -2e-06 16.405142 -18.685368 5.850927 -0.609776 -1.795655 -3.889328 -4.807088 -11.046811 -2.93785 5e-06 -20.976013 0.0 -5.019969 -25.033554 -4.031881 6e-06 -0.0 -0.0 -10.634533 -5.686969 -3.565587 10.573275 -17.922947 -3.113901 2e-06 -13.821206 3e-06 -0.501776 -31.181498 -4.027016 -11.473115 -59.409924 7.209762 -13.982714 -7.150197 -2.875042 13.77273 -8.40149 -3.218242 0.347733 -34.211555 0.771655 -0.963029 -17.73337 2.62102 0.0 0.0 -1e-06 -17.346416 -20.095215 -4.201779 21.757557 -1.638374 3.866428 1e-06 -6.338825 2e-06 -1.697588 -22.591743 -6.194008 -2e-06 -5e-06 -2e-06 -138.946136 -81.226273 -35.071671 83.14743 -11.702737 -16.703747 19.012499 0.2011 -0.183849 28.50898 77.11039 35.046379 22.182106 -20.375889 49.933319 -16.701813 -16.743528 28.476528 -3e-06 -12.6906 -0.0 16.385965 -17.951723 2.657918 -0.105919 -1.513854 -4.275881 -5.03904 -5.612872 -2.953556 5e-06 -11.02052 -2e-06 -6.111294 -15.89533 -3.840471 0.0 -0.0 -0.0 -10.283369 -5.680288 -4.341839 11.028294 -11.302402 -2.372633 -1.384269 -14.23858 -6.320121 -0.625438 -26.924185 -3.8276 -4.676614 -49.502201 -3.821974 -13.708522 -7.363476 -3.720939 18.14115 -14.052736 -3.242674 6e-06 -18.78727 -3e-06 -0.429712 -8.456041 2.555502 0.0 1e-06 0.0 -15.923532 -20.094481 -5.473585 30.41921 -7.190822 1.735926 3e-06 -8.162925 -2e-06 -1.861903 -22.861469 -6.167939 0.0 -1e-06 -2e-06 154.951477 -8.97399 0.443889 94.417267 -1.750131 0.295944 -100.975723 8.711853 9.261843 -42.865398 1.687414 1.460477 -1.0 0.0 0.0 -70.878189 -8.497062 6.733479 139.52652 0.570362 0.461106 -108.214447 14.500002 10.210891 -26.247643 1.008163 1.511546 -1.000002 0.0 -0.0 
